<?xml version="1.0" standalone="no"?><!DOCTYPE svg PUBLIC "-//W3C//DTD SVG 1.1//EN" "http://www.w3.org/Graphics/SVG/1.1/DTD/svg11.dtd"><svg t="1498188342915" class="icon" style="" viewBox="0 0 1024 1024" version="1.1" xmlns="http://www.w3.org/2000/svg" p-id="1420" xmlns:xlink="http://www.w3.org/1999/xlink" width="200" height="200"><defs><style type="text/css"></style></defs><path d="M745.589737 858.948569H276.585818C238.394109 858.948569 207.135289 827.689749 207.135289 789.376411V233.528923c0-38.313339 31.13719-69.572158 69.572158-69.572159h469.00392c38.313339 0 69.572158 31.13719 69.572158 69.572159v555.847488c-0.243259 38.434969-31.380449 69.572158-69.693788 69.572158zM276.707447 216.135883c-9.608742 0-17.39304 7.784297-17.393039 17.39304v555.847488c0 9.608742 7.784297 17.39304 17.393039 17.393039h469.00392c9.608742 0 17.39304-7.784297 17.39304-17.393039V233.528923c0-9.608742-7.784297-17.39304-17.39304-17.39304H276.707447z" p-id="1421" fill="#6b7eeb"></path><path d="M681.004395 392.742131H495.275924c-14.352298 0-26.028745-11.676446-26.028745-26.028745 0-14.352298 11.676446-26.028745 26.028745-26.028744h185.606841c14.352298 0 26.028745 11.676446 26.028745 26.028744 0.12163 14.230669-11.554816 26.028745-25.907115 26.028745z m0 132.333056H495.275924c-14.352298 0-26.028745-11.676446-26.028745-26.028744 0-14.352298 11.676446-26.028745 26.028745-26.028745h185.606841c14.352298 0 26.028745 11.676446 26.028745 26.028745 0.12163 14.352298-11.554816 26.028745-25.907115 26.028744z m0 132.454686H495.275924c-14.352298 0-26.028745-11.676446-26.028745-26.028745 0-14.352298 11.676446-26.028745 26.028745-26.028744h185.606841c14.352298 0 26.028745 11.676446 26.028745 26.028744 0.12163 14.352298-11.554816 26.028745-25.907115 26.028745zM376.078869 603.52631c-15.203706 0-27.60993 12.284594-27.60993 27.974818s12.284594 27.974819 27.60993 27.974819c15.203706 0 27.60993-12.284594 27.60993-27.974819 0-15.568595-12.406224-27.974819-27.60993-27.974818zM377.538425 586.13327h-2.919112c-13.257632 0-24.08267-10.825039-24.08267-24.08267V358.077681c0-13.257632 10.825039-24.08267 24.08267-24.08267h2.919112c13.257632 0 24.08267 10.825039 24.08267 24.08267v203.972919c0 13.257632-10.825039 24.08267-24.08267 24.08267z" p-id="1422" fill="#6b7eeb"></path></svg>