<?xml version="1.0" standalone="no"?><!DOCTYPE svg PUBLIC "-//W3C//DTD SVG 1.1//EN" "http://www.w3.org/Graphics/SVG/1.1/DTD/svg11.dtd"><svg t="1498188406308" class="icon" style="" viewBox="0 0 1024 1024" version="1.1" xmlns="http://www.w3.org/2000/svg" p-id="1672" xmlns:xlink="http://www.w3.org/1999/xlink" width="200" height="200"><defs><style type="text/css"></style></defs><path d="M883.2 115.2h-614.4C219.648 115.2 179.2 155.648 179.2 204.8v348.16c0 49.152 40.448 89.6 89.6 89.6h293.888l245.248 165.888c7.168 5.632 15.36 8.192 24.064 8.192 5.632 0 11.264-1.024 16.384-3.584 13.312-6.144 22.016-19.968 22.016-34.816v-135.68h12.8c49.152 0 89.6-40.448 89.6-89.6V204.8c0-49.152-40.448-89.6-89.6-89.6z m45.056 433.664c0 16.896-13.824 30.72-30.72 30.72h-22.528c-32.768 0-58.88 26.624-58.88 58.88v75.776c0 14.336-16.384 22.016-27.136 13.312l-181.248-134.656c-10.24-8.192-23.552-12.8-36.864-12.8H254.464c-16.896 0-30.72-13.824-30.72-30.72V192.512c0-16.896 13.824-30.72 30.72-30.72h643.072c16.896 0 30.72 13.824 30.72 30.72v356.352z" fill="#6b7eeb" p-id="1673"></path><path d="M563.712 488.96l-152.576-264.192c-5.632-9.728-19.456-9.728-25.088 0L233.472 488.96c-5.632 9.728 1.536 21.504 12.288 21.504h305.152c11.264 0.512 17.92-11.776 12.8-21.504z m-51.2-10.24H284.672c-8.192 0-13.312-9.216-9.216-16.384L389.12 265.216c4.096-7.168 14.336-7.168 18.432 0l114.176 197.632c4.096 7.168-1.024 15.872-9.216 15.872zM875.52 282.624h-276.48c-12.8 0-23.04-10.24-23.04-23.04s10.24-23.04 23.04-23.04h276.48c12.8 0 23.04 10.24 23.04 23.04s-10.24 23.04-23.04 23.04z" fill="#6b7eeb" p-id="1674"></path><path d="M385.536 402.944V308.736c0-7.168 5.632-12.8 12.8-12.8s12.8 5.632 12.8 12.8v94.72c0 7.168-5.632 12.8-12.8 12.8-6.656-0.512-12.8-6.144-12.8-13.312zM875.52 390.144h-276.48c-12.8 0-23.04-10.24-23.04-23.04s10.24-23.04 23.04-23.04h276.48c12.8 0 23.04 10.24 23.04 23.04s-10.24 23.04-23.04 23.04zM875.52 502.272h-276.48c-12.8 0-23.04-10.24-23.04-23.04s10.24-23.04 23.04-23.04h276.48c12.8 0 23.04 10.24 23.04 23.04s-10.24 23.04-23.04 23.04z" fill="#6b7eeb" p-id="1675"></path><path d="M397.824 445.44m-13.312 0a13.312 13.312 0 1 0 26.624 0 13.312 13.312 0 1 0-26.624 0Z" fill="#6b7eeb" p-id="1676"></path></svg>