<?xml version="1.0" standalone="no"?><!DOCTYPE svg PUBLIC "-//W3C//DTD SVG 1.1//EN" "http://www.w3.org/Graphics/SVG/1.1/DTD/svg11.dtd"><svg class="icon" width="200px" height="200.00px" viewBox="0 0 1024 1024" version="1.1" xmlns="http://www.w3.org/2000/svg"><path fill="#333333" d="M511.744 869.681a20.553 20.553 0 0 1-15.027-6.526C484.58 850.18 199.493 543.39 199.493 376.123c0-172.185 140.07-312.272 312.249-312.272s312.256 140.087 312.256 312.272c0 167.268-285.09 474.058-297.226 487.03a20.556 20.556 0 0 1-15.028 6.528z m0-764.679c-149.48 0-271.097 121.618-271.097 271.12 0 130.844 212.12 376.602 271.097 442.392 58.975-65.807 271.105-311.626 271.105-442.392 0-149.504-121.624-271.12-271.105-271.12z m425.255 855.979H86.479a20.568 20.568 0 0 1-17.786-10.238 20.552 20.552 0 0 1-0.09-20.528l130.513-228.99c5.635-9.87 18.206-13.295 28.066-7.684 9.873 5.624 13.312 18.193 7.683 28.064L121.89 919.832h779.07L784.005 721.879c-5.784-9.79-2.537-22.39 7.234-28.179 9.741-5.785 22.393-2.539 28.195 7.248l135.28 228.994a20.543 20.543 0 0 1 0.158 20.656A20.557 20.557 0 0 1 937 960.981zM511.744 508.479c-66.201 0-120.067-53.863-120.067-120.073 0-66.228 53.866-120.09 120.067-120.09 66.209 0 120.073 53.865 120.073 120.09 0 66.21-53.863 120.073-120.073 120.073z m0-199.014c-43.512 0-78.916 35.408-78.916 78.941 0 43.511 35.404 78.924 78.916 78.924 43.518 0 78.922-35.413 78.922-78.924 0-43.533-35.403-78.94-78.922-78.94z" /></svg>