<?xml version="1.0" standalone="no"?><!DOCTYPE svg PUBLIC "-//W3C//DTD SVG 1.1//EN" "http://www.w3.org/Graphics/SVG/1.1/DTD/svg11.dtd"><svg t="1497593955980" class="icon" style="" viewBox="0 0 1024 1024" version="1.1" xmlns="http://www.w3.org/2000/svg" p-id="18999" xmlns:xlink="http://www.w3.org/1999/xlink" width="64" height="64"><defs><style type="text/css"></style></defs><path d="M460.8 230.4l-153.6 0c-43.52 0-76.8 33.28-76.8 76.8l0 320C230.4 634.88 235.52 640 243.2 640l25.6 0c7.68 0 12.8-5.12 12.8-12.8l0-335.36c0-5.12 5.12-10.24 10.24-10.24l133.12 0c5.12 0 10.24 5.12 10.24 10.24l0 335.36c0 7.68 5.12 12.8 12.8 12.8l25.6 0c7.68 0 12.8-5.12 12.8-12.8L486.4 256C486.4 243.2 476.16 230.4 460.8 230.4z" p-id="19000" fill="#6b7eeb"></path><path d="M476.16 716.8c-10.24-2.56-25.6-10.24-48.64-25.6-48.64-38.4-46.08-76.8-46.08-76.8L381.44 345.6c0-7.68-5.12-12.8-12.8-12.8l-25.6 0c-7.68 0-12.8 5.12-12.8 12.8L327.68 614.4c0 0 0 51.2-35.84 79.36-20.48 12.8-40.96 20.48-51.2 23.04C235.52 716.8 230.4 721.92 230.4 727.04l0 25.6c0 7.68 7.68 12.8 15.36 12.8 17.92-2.56 46.08-7.68 64-20.48 40.96-25.6 48.64-51.2 48.64-51.2s7.68 23.04 51.2 48.64c23.04 15.36 46.08 20.48 61.44 20.48 7.68 0 15.36-5.12 15.36-12.8l0-25.6C486.4 721.92 481.28 719.36 476.16 716.8z" p-id="19001" fill="#6b7eeb"></path><path d="M755.2 486.4 640 486.4l0-128 115.2 0c7.68 0 12.8-5.12 12.8-12.8l0-25.6c0-7.68-5.12-12.8-12.8-12.8L640 307.2 640 243.2C640 235.52 634.88 230.4 627.2 230.4l-25.6 0C593.92 230.4 588.8 235.52 588.8 243.2L588.8 486.4l-38.4 0c-7.68 0-12.8 5.12-12.8 12.8l0 256c0 7.68 5.12 12.8 12.8 12.8L691.2 768c43.52 0 76.8-35.84 76.8-76.8l0-192C768 491.52 762.88 486.4 755.2 486.4zM716.8 691.2c0 15.36-12.8 25.6-25.6 25.6l-94.72 0c-5.12 0-7.68-2.56-7.68-7.68l0-163.84c0-5.12 2.56-7.68 7.68-7.68l112.64 0c5.12 0 7.68 2.56 7.68 7.68L716.8 691.2z" p-id="19002" fill="#6b7eeb"></path></svg>