<?xml version="1.0" standalone="no"?><!DOCTYPE svg PUBLIC "-//W3C//DTD SVG 1.1//EN" "http://www.w3.org/Graphics/SVG/1.1/DTD/svg11.dtd"><svg t="1497595185694" class="icon" style="" viewBox="0 0 1024 1024" version="1.1" xmlns="http://www.w3.org/2000/svg" p-id="19354" xmlns:xlink="http://www.w3.org/1999/xlink" width="200" height="200"><defs><style type="text/css"></style></defs><path d="M816.635 767.155H621.374l-83.354 98.959-83.355-98.959H289.697c-36.38 0-65.871-29.492-65.871-65.871V306.088c0-36.38 29.491-65.87 65.871-65.87h526.938c36.379 0 65.871 29.49 65.871 65.87v395.196c0 36.379-29.492 65.871-65.871 65.871z m32.934-461.067c0-18.203-14.731-32.949-32.935-32.949H289.697c-18.204 0-32.937 14.746-32.937 32.949v395.196c0 18.203 14.732 32.922 32.937 32.922l186.878-0.498 61.444 85.928 61.444-85.928 217.171 0.498c18.203 0 32.935-14.719 32.935-32.922V306.088zM717.842 519.94c-18.203 0-32.935-14.774-32.935-32.95 0-18.177 14.731-32.949 32.935-32.949 18.19 0 32.922 14.772 32.922 32.949 0 18.176-14.732 32.95-32.922 32.95z m-164.676 0c-18.19 0-32.936-14.774-32.936-32.95 0-18.177 14.745-32.949 32.936-32.949 18.189 0 32.935 14.772 32.935 32.949 0 18.176-14.746 32.95-32.935 32.95z m-164.663 0c-18.203 0-32.935-14.774-32.935-32.95 0-18.177 14.731-32.949 32.935-32.949 18.19 0 32.936 14.772 32.936 32.949-0.001 18.176-14.746 32.95-32.936 32.95z m312.865-328.939c-0.318 0-0.568-0.166-0.886-0.193H207.366c-18.204 0-32.936 14.745-32.936 32.949v378.734h-0.042c-0.11 8.992-7.401 16.268-16.433 16.268-9.02 0-16.309-7.275-16.434-16.268h-0.027V223.757c0-36.38 29.491-65.871 65.871-65.871h494.002v0.166c9.088 0 16.474 7.359 16.474 16.461s-7.385 16.488-16.473 16.488z" p-id="19355" fill="#6b7eeb"></path></svg>