<?xml version="1.0" standalone="no"?><!DOCTYPE svg PUBLIC "-//W3C//DTD SVG 1.1//EN" "http://www.w3.org/Graphics/SVG/1.1/DTD/svg11.dtd"><svg t="1497606197936" class="icon" style="" viewBox="0 0 1024 1024" version="1.1" xmlns="http://www.w3.org/2000/svg" p-id="9332" xmlns:xlink="http://www.w3.org/1999/xlink" width="32" height="32"><defs><style type="text/css"></style></defs><path d="M341.00736 376.14592H171.75552l309.80608 410.752zM928.17408 376.14592h-181.3248l-122.34752 406.03648zM548.55168 160.2816L435.5584 334.70976h231.85408z" fill="#ffffff" p-id="9333"></path><path d="M511.99488 928.88576c-7.28576 0-14.2592-1.72032-19.63008-4.8384l-0.98304-0.36352-2.67776-1.78688-2.37056-1.92512L81.664 391.41888l-6.12352-9.55392-0.58368-0.8704c-4.31104-6.64064-6.69184-15.72352-6.69184-25.56416 0-9.09312 2.08896-17.69984 5.88288-24.22784l0.51712-0.88576-0.2048-0.18944L255.26272 101.9904l1.39776-1.48992a19.328 19.328 0 0 1 13.27616-5.3504l482.89792-0.00512a19.54816 19.54816 0 0 1 9.55392 1.93536 19.63008 19.63008 0 0 1 7.53152 6.41536l182.59456 230.21568c2.8672 6.30784 3.21536 15.42144 3.21536 21.7088 0 9.9328-2.56512 19.43552-7.04 26.07616l-7.54688 11.22304-406.77888 529.44384-0.54784 0.4864a2.5344 2.5344 0 0 0-0.5888 0.41472c-5.82144 3.80928-13.26592 5.82144-21.23264 5.82144z m0.00512-82.62144l142.06976-471.39328H369.93536L512 846.26432z m-45.568-16.29184L329.28256 374.86592H117.9648l348.4672 455.10656z m91.48928-1.22368l347.95008-453.88288h-211.16416l-136.78592 453.88288zM382.0032 335.98976h258.62656L511.44192 136.1664 382.0032 335.98976z m-262.6048-0.00512h198.17472L262.9632 154.79808 119.3984 335.98464z m587.02848-0.00512h198.26688l-143.67232-181.1456-54.59456 181.1456z m-33.94048-22.30784l54.13888-179.64032h-170.2656l116.12672 179.64032z m-321.42336-1.4336l115.4304-178.20672H297.36448l53.69856 178.20672z" fill="#ffffff" p-id="9334"></path></svg>