<?xml version="1.0" standalone="no"?><!DOCTYPE svg PUBLIC "-//W3C//DTD SVG 1.1//EN" "http://www.w3.org/Graphics/SVG/1.1/DTD/svg11.dtd"><svg t="1502859884484" class="icon" style="" viewBox="0 0 1024 1024" version="1.1" xmlns="http://www.w3.org/2000/svg" p-id="4402" xmlns:xlink="http://www.w3.org/1999/xlink" width="200" height="200"><defs><style type="text/css"></style></defs><path d="M919.04 394.752c0-131.072-106.496-237.568-237.056-237.568-65.024 0-125.952 26.112-169.984 72.192-44.032-45.568-104.96-71.68-169.984-71.68-130.56 0-237.056 106.496-237.056 237.568 0 60.928 23.04 118.272 64 162.816 0.512 1.024 1.536 1.536 2.048 2.56l2.56 2.56 1.024 1.024L474.624 852.48c9.728 9.728 23.04 14.848 36.864 14.848 14.336 0 27.648-5.632 37.376-15.36 9.216-8.704 245.76-233.984 300.032-287.744l1.024-1.024-0.512 0.512 2.048-2.048c43.52-45.568 67.584-104.448 67.584-166.912zM810.496 535.04c0 0.512-0.512 0.512-1.024 1.024-51.2 51.2-286.72 275.456-286.72 275.456-3.072 3.072-7.168 4.608-11.264 4.608-4.096 0-8.192-1.536-11.264-4.608L215.04 537.088c-0.512-0.512-0.512-1.024-1.024-1.024l-2.048-2.048a192.588 192.588 0 0 1-53.248-133.12c0-105.984 86.016-192 191.488-192 68.608 0 128.512 35.84 162.304 90.112 33.792-54.272 93.696-90.112 162.304-90.112 105.984 0 191.488 86.016 191.488 192-0.512 51.712-21.504 99.328-55.808 134.144z" fill="#26A8BB" p-id="4403"></path><path d="M372.224 250.368c-87.04 0-157.696 71.168-157.696 158.208 0 10.24 8.192 18.432 18.432 18.432s18.432-8.192 18.432-18.432c-0.512-67.072 54.272-121.856 120.832-121.856a18.355 18.355 0 0 0 18.432-18.432c0-9.728-8.192-17.92-18.432-17.92z" fill="#26A8BB" p-id="4404"></path></svg>