<?xml version="1.0" standalone="no"?><!DOCTYPE svg PUBLIC "-//W3C//DTD SVG 1.1//EN" "http://www.w3.org/Graphics/SVG/1.1/DTD/svg11.dtd"><svg t="1501484437187" class="icon" style="" viewBox="0 0 1024 1024" version="1.1" xmlns="http://www.w3.org/2000/svg" p-id="4580" xmlns:xlink="http://www.w3.org/1999/xlink" width="200" height="200"><defs><style type="text/css"></style></defs><path d="M842.922667 599.253333l134.314666 0.725334C953.472 837.930667 744.277333 1024 489.728 1024 219.306667 1024 0 813.866667 0 554.666667 0 323.882667 173.824 132.010667 402.816 92.714667L400.938667 224C245.632 262.058667 133.546667 397.226667 133.546667 554.666667c0 188.501333 159.488 341.333333 356.181333 341.333333 179.84 0 330.368-128.341333 353.194667-296.746667z m23.893333-250.88a356.181333 356.181333 0 0 0-80.213333-113.706666 379.52 379.52 0 0 0-120.746667-77.866667 391.936 391.936 0 0 0-48.128-15.957333V382.72l262.357333 0.426667a344.192 344.192 0 0 0-13.226666-34.816z m130.346667 162.986667l-480.64-0.853333a26.325333 26.325333 0 0 1-26.794667-25.685334V25.728c0-14.208 12.032-25.728 26.88-25.728 68.394667 0 134.826667 12.842667 197.333333 38.144a507.477333 507.477333 0 0 1 161.194667 104.064 484.181333 484.181333 0 0 1 108.8 154.325333A465.92 465.92 0 0 1 1024 485.546667a25.173333 25.173333 0 0 1-7.850667 18.261333 27.477333 27.477333 0 0 1-18.986666 7.552z" p-id="4581" fill="#ffffff"></path></svg>