<?xml version="1.0" standalone="no"?><!DOCTYPE svg PUBLIC "-//W3C//DTD SVG 1.1//EN" "http://www.w3.org/Graphics/SVG/1.1/DTD/svg11.dtd"><svg t="1497606316819" class="icon" style="" viewBox="0 0 1024 1024" version="1.1" xmlns="http://www.w3.org/2000/svg" p-id="10684" xmlns:xlink="http://www.w3.org/1999/xlink" width="32" height="32"><defs><style type="text/css"></style></defs><path d="M645.995 955.414h-0.005c-16.259-0.006-32.066-6.727-42.275-17.996-13.909-15.245-57.977-54.898-94.052-54.898-35.825 0-80.578 39.885-93.43 53.851-10.185 11.070-25.88 17.686-41.984 17.686-7.673 0-14.909-1.475-21.519-4.377l-1.156-0.508-109.647-61.322-1.090-0.757c-19.963-13.97-27.559-41.304-17.666-63.573 0.076-0.17 10.113-23.332 10.113-44.45 0-64.089-52.144-116.231-116.23-116.231h-3.888c-0.236 0.006-0.474 0.010-0.704 0.010-18.36 0-33.308-16.309-38.086-41.546-0.381-2.023-9.355-49.894-9.355-87.613 0-37.718 8.974-85.595 9.355-87.615 4.834-25.56 20.109-41.978 38.79-41.537h3.888c64.087 0 116.23-52.144 116.23-116.23 0-21.112-10.032-44.27-10.138-44.502-9.879-22.249-2.232-49.577 17.816-63.504l1.136-0.789 115.718-63.564 1.205-0.512c6.517-2.78 13.652-4.185 21.212-4.185 16.070 0 31.795 6.465 42.075 17.299 13.697 14.34 56.988 51.634 92.028 51.634 34.708 0 77.738-36.557 91.389-50.645 10.22-10.613 25.835-16.967 41.743-16.967 7.714 0 14.984 1.457 21.605 4.336l1.172 0.514 111.769 62.091 1.101 0.775c19.996 13.952 27.614 41.285 17.716 63.568-0.076 0.171-10.114 23.334-10.114 44.451 0 64.087 52.143 116.23 116.23 116.23h3.889c18.655-0.418 33.951 15.973 38.789 41.537 0.381 2.020 9.355 49.892 9.355 87.611 0 37.719-8.974 85.595-9.36 87.618-4.833 25.559-20.128 41.918-38.788 41.536h-3.883c-64.088 0-116.23 52.143-116.23 116.231 0 21.112 10.035 44.264 10.134 44.495 9.873 22.233 2.245 49.567-17.767 63.509l-1.121 0.784-113.652 62.816-1.185 0.512c-6.504 2.807-13.613 4.228-21.131 4.228v0zM642.545 901.869c0.508 0.332 1.943 0.893 3.451 0.893 0.061 0 0.121 0 0.171-0.004l106.187-58.687c-2.563-5.956-14.284-34.857-14.284-64.996 0-90.149 71.006-164.031 160.023-168.65 1.282-7.075 8.236-46.877 8.236-76.735 0-29.854-6.953-69.638-8.236-76.733-89.016-4.623-160.023-78.501-160.023-168.65 0-30.188 11.757-59.123 14.3-65.032l-104.462-58.037c-0.122-0.005-0.268-0.014-0.439-0.014-1.777 0-3.44 0.648-3.993 1.020-1.754 1.804-16.898 17.158-38.649 32.458-32.197 22.649-62.64 34.135-90.49 34.135-28.121 0-58.81-11.712-91.213-34.809-21.885-15.596-37.096-31.248-38.854-33.080-0.557-0.378-2.24-1.046-4.035-1.046-0.14 0-0.266 0.005-0.371 0.010l-108.201 59.429c2.593 6.030 14.27 34.879 14.27 64.966 0 90.149-71.005 164.028-160.023 168.65-1.281 7.079-8.235 46.874-8.235 76.733 0 29.855 6.953 69.636 8.24 76.729 89.013 4.625 160.018 78.503 160.018 168.652 0 30.248-11.803 59.232-14.314 65.066l102.407 57.261c0.065 0.006 0.141 0.006 0.226 0.006 1.497 0 2.914-0.545 3.421-0.874 1.916-2.055 17.209-18.244 39.242-34.394 32.839-24.068 64.047-36.271 92.752-36.271 28.979 0 60.423 12.437 93.453 36.965 22.156 16.456 37.514 32.948 39.425 35.039v0zM510.039 687.889c-85.349 0-154.786-69.435-154.786-154.786 0-85.349 69.436-154.786 154.786-154.786 85.352 0 154.795 69.437 154.795 154.786-0.001 85.352-69.443 154.786-154.795 154.786v0zM510.039 430.967c-56.319 0-102.136 45.818-102.136 102.136 0 56.322 45.818 102.144 102.136 102.144 56.32 0 102.142-45.823 102.142-102.144 0-56.319-45.818-102.136-102.142-102.136v0zM510.039 430.967z" p-id="10685" fill="#ffffff"></path></svg>