<?xml version="1.0" standalone="no"?><!DOCTYPE svg PUBLIC "-//W3C//DTD SVG 1.1//EN" "http://www.w3.org/Graphics/SVG/1.1/DTD/svg11.dtd"><svg t="1499931571408" class="icon" style="" viewBox="0 0 1024 1024" version="1.1" xmlns="http://www.w3.org/2000/svg" p-id="2199" xmlns:xlink="http://www.w3.org/1999/xlink" width="200" height="200"><defs><style type="text/css"></style></defs><path d="M647.111722 548.43891c-11.241019 0-22.594601-1.330298-33.875528-4.02978-13.9405-3.345188-22.521946-17.361413-19.175735-31.289634 3.347235-13.941524 17.374716-22.482037 31.292704-19.188015 31.138184 7.478322 63.189158-1.546216 85.797062-24.15412l167.847799-167.840636c17.209964-17.209964 26.689872-40.085974 26.689872-64.419172 0-24.332175-9.479909-47.214325-26.689872-64.419172l-27.591405-27.596522c-35.510772-35.510772-93.313246-35.516912-128.848577 0.00614l-167.822217 167.834496c-22.520923 22.5199-31.568996 54.489008-24.219611 85.538165 3.308349 13.941524-5.322216 27.932166-19.274996 31.227212-13.916964 3.295046-27.945469-5.309936-31.240515-19.263739-11.532661-48.697095 2.686179-98.864682 38.033221-134.211724L685.855118 108.798938c55.760978-55.763025 146.490376-55.763025 202.2534 0l27.589358 27.590382c27.021423 27.013237 41.898249 62.923098 41.898249 101.127212 0 38.197974-14.876826 74.113975-41.898249 101.127212L747.853148 506.477216C720.579991 533.750373 684.51254 548.43891 647.111722 548.43891z" fill="#4baae4" p-id="2200"></path><path d="M235.366054 957.194478c-38.20923 0-74.126254-14.878872-101.133352-41.885969l-27.589358-27.590382c-55.763025-55.763025-55.763025-146.491399 0-202.242144l167.845753-167.845753c35.46063-35.486212 85.799108-49.629327 134.616954-37.931914 13.9405 3.346211 22.520923 17.362436 19.175735 31.290657-3.332908 13.966083-17.388019 22.533202-31.29168 19.186991-31.125905-7.477298-63.189158 1.570775-85.798085 24.155143L143.345244 722.178907c-35.510772 35.509748-35.510772 93.313246 0 128.83732l27.590382 27.589358c17.20894 17.198707 40.08495 26.678616 64.430428 26.678616 24.333198 0 47.208185-9.480932 64.419172-26.678616l167.834496-167.833473c22.520923-22.534226 31.57002-54.495148 24.218588-85.545328-3.307326-13.9405 5.322216-27.933189 19.277042-31.227212 13.863752-3.320629 27.918863 5.308913 31.238468 19.262716 11.533684 48.691979-2.687202 98.864682-38.032198 134.210701L336.488149 915.308509C309.481052 942.315606 273.564028 957.194478 235.366054 957.194478z" fill="#4baae4" p-id="2201"></path><path d="M339.618443 711.329814c-6.641257 0-13.281491-2.535753-18.351973-7.604188-10.137895-10.125615-10.137895-26.564006 0-36.7019l343.094102-343.086939c10.138918-10.138918 26.562982-10.138918 36.702923 0 10.137895 10.131755 10.137895 26.570145 0 36.7019L357.969393 703.725626C352.899934 708.795085 346.2597 711.329814 339.618443 711.329814z" fill="#4baae4" p-id="2202"></path></svg>