<?xml version="1.0" standalone="no"?><!DOCTYPE svg PUBLIC "-//W3C//DTD SVG 1.1//EN" "http://www.w3.org/Graphics/SVG/1.1/DTD/svg11.dtd"><svg t="1498528857926" class="icon" style="" viewBox="0 0 1024 1024" version="1.1" xmlns="http://www.w3.org/2000/svg" p-id="1831" xmlns:xlink="http://www.w3.org/1999/xlink" width="200" height="200"><defs><style type="text/css"></style></defs><path d="M634.3 658.1c133.4-107.4 75-274.4 75-274.4 75.1 17.9 139 113.3 139 113.3-69.5 116.4-214 161.1-214 161.1M509.9 597c-66.4 0-120.2-57.8-120.2-129 0-71.3 53.8-129 120.2-129s120.2 57.8 120.2 129-53.8 129-120.2 129m-341.2-68.6C185.4 489.6 298 401.6 298 401.6 270.2 588 400.8 670.1 400.8 670.1c-115.3-7.5-232.1-141.7-232.1-141.7m329.4-284.9c-319.6 0-433.6 284.9-433.6 284.9s175.1 258 464.2 252c289-5.9 430.8-286.3 430.8-286.3S817.7 243.5 498.1 243.5" p-id="1832" fill="#ffffff"></path></svg>