<?xml version="1.0" standalone="no"?><!DOCTYPE svg PUBLIC "-//W3C//DTD SVG 1.1//EN" "http://www.w3.org/Graphics/SVG/1.1/DTD/svg11.dtd"><svg t="1498530724831" class="icon" style="" viewBox="0 0 1024 1024" version="1.1" xmlns="http://www.w3.org/2000/svg" p-id="3750" xmlns:xlink="http://www.w3.org/1999/xlink" width="200" height="200"><defs><style type="text/css"></style></defs><path d="M274.007203 315.221571c0.280968-37.829702 11.128029-72.462939 32.240754-103.739159 20.527679-30.407773 47.518835-53.602822 80.589113-69.548658 18.130331-8.742843 37.439266-13.632413 57.352708-16.048006 22.069962-2.678317 43.126736 2.127328 63.019502 11.002748 57.009709 25.433061 94.120572 69.121733 112.775132 128.116462 14.594515 46.148053 8.601751 90.691791-16.265726 132.16921-22.724337 37.908762-54.246251 66.610051-94.491546 85.17947-30.001525 13.842835-61.457758 16.878747-93.348215 8.422953-52.137168-13.82459-93.374973-42.896854-120.248146-90.405958-14.875483-26.296642-21.730611-54.898193-21.622359-85.14663l-0.001217-0.002432zM493.726473 536.660704c4.237627 0.014596 8.528772 0.525446 12.698286 1.311183 9.295048 1.752704 12.889247 7.013249 9.946991 16.015166-2.55182 7.805067-5.73369 15.585808-9.87158 22.656223-11.866329 20.285634-23.064904 40.830341-30.713067 63.149647-12.236088 35.710889-16.708463 72.30117-11.715506 109.775709 1.933934 14.516671 5.245949 28.848462 7.843989 43.277559 0.577748 3.200114 1.02535 6.456178 1.140899 9.70008 0.299212 8.381599-3.460405 13.812427-11.76051 15.50918-6.840533 1.398758-13.909732 2.00448-20.903519 2.2818-32.435363 1.278343-64.725986-1.093464-96.998364-4.066128-25.120469-2.312207-50.289591-4.109915-75.414926-6.378334-24.745846-2.235579-49.44912-4.957683-74.202263-7.115419-15.223347-1.326995-29.965036-4.677932-44.43792-9.320591-17.786115-5.705715-23.03328-13.814859-18.745784-32.046143 3.836245-16.315595 8.992187-32.35387 14.208944-48.305789 10.287558-31.447719 19.968176-63.155728 31.824776-94.015968 16.636701-43.304318 48.494316-70.02302 94.36505-78.584633 13.858647-2.585877 28.161247-3.31688 42.294779-3.774212 27.481329-0.89034 54.989417-0.987644 82.486558-1.413354 0.002433 0.429358 65.30495 1.238205 97.953167 1.344024zM626.146243 830.605347c-7.421929 7.875613-14.72466 15.644191-22.050501 23.389659-6.707955 7.089876-16.176935 8.6054-24.565831 3.825298-1.676076-0.954804-3.198898-2.272069-4.58306-3.634337-8.735545-8.6054-17.421221-17.261885-26.108114-25.917153-5.840725-5.818831-8.151716-12.72991-5.250814-20.60309 1.133602-3.07605 3.267011-6.008576 5.582867-8.382815 7.04244-7.216373 14.376795-14.146912 21.652767-21.13097 1.095896-1.050893 1.267396-1.783112 0.610588-3.274309a1279.374208 1279.374208 0 0 1-11.831056-27.775676c-0.71884-1.741757-1.548364-2.342615-3.461621-2.320721-9.939693 0.113117-19.892765-0.252993-29.819079 0.138659-10.215795 0.402599-17.828685-7.217589-20.267388-15.347411-0.819794-2.733051-1.233339-5.685037-1.264964-8.543368-0.136227-12.116889-0.121631-24.234995-0.036489-36.351884 0.062032-8.778116 3.532167-15.85218 10.990585-20.770942 2.819409-1.860956 5.942895-2.589526 9.280453-2.58831 10.448111 0.006082 20.898654-0.051085 31.345548 0.053518 1.77703 0.019461 2.516547-0.59356 3.139299-2.141923 3.271876-8.131038 6.624029-16.229237 10.002941-24.314056 0.752896-1.796491 1.728378-3.49811 2.661288-5.362715-0.428141-0.448819-0.847769-0.93291-1.311183-1.370782-7.229752-6.822288-14.455855-13.649441-21.700203-20.455917-8.978807-8.435116-9.31086-20.498488-0.676269-29.298497a3122.383247 3122.383247 0 0 1 26.229745-26.413408c8.635808-8.594453 20.174949-8.478903 28.734129 0.238397a2727.392358 2727.392358 0 0 1 21.228275 21.866837c1.046027 1.088598 1.763651 1.292939 3.268227 0.630049 9.207474-4.061262 18.475763-7.991163 27.775676-11.833489 1.728378-0.713975 2.357211-1.52647 2.332885-3.45189-0.11555-9.939693 0.252993-19.893981-0.13866-29.819078-0.402599-10.217012 7.217589-17.828685 15.346195-20.268606 2.733051-0.819794 5.685037-1.234556 8.543368-1.264963a1753.640594 1753.640594 0 0 1 36.569604-0.027975c8.691758 0.085142 15.689195 3.596631 20.555655 10.980855 1.858523 2.821841 2.589526 5.944111 2.587093 9.280452-0.004865 10.448111 0.052301 20.898654-0.053518 31.345549-0.019461 1.778247 0.597209 2.512898 2.145573 3.135649 9.931179 4.006528 19.825868 8.105496 29.733936 12.174056l0.272454 0.824659c0.447602-0.659241 0.819794-1.390243 1.358619-1.964342a7025.136985 7025.136985 0 0 1 20.453485-21.703852c6.718902-7.095958 16.178152-8.604183 24.567048-3.810702 1.676076 0.95602 3.195249 2.27815 4.576978 3.640418a5764.425851 5764.425851 0 0 1 26.114195 25.912288c5.83586 5.818831 8.152932 12.732343 5.23257 20.60674-1.1409 3.074834-3.268227 6.009792-5.5853 8.382815-7.044873 7.212724-14.378011 14.145696-21.663714 21.122455-1.123871 1.074003-1.210229 1.824466-0.57045 3.279174a1314.875891 1314.875891 0 0 1 11.818894 27.782974c0.722489 1.75392 1.575123 2.32437 3.472567 2.303693 9.939693-0.109468 19.892765 0.244478 29.819079-0.133794 10.157412-0.386787 17.645023 7.052171 20.201708 15.149153 0.879393 2.785352 1.279559 5.82248 1.316048 8.752573 0.142308 12.116889 0.12528 24.236211 0.03649 36.351884-0.064464 8.779332-3.540681 15.850964-11.002749 20.76486-2.821841 1.858523-5.945328 2.579795-9.282885 2.57858-10.376348-0.007298-20.753913 0.060816-31.127829-0.058383-1.946097-0.021894-2.747646 0.638563-3.431213 2.362076-3.123486 7.87683-6.361306 15.709872-9.627101 23.528318-0.834389 1.995966-1.920555 3.88733-3.156327 6.356441 0.476794 0.312592 1.157928 0.631265 1.678509 1.120222 7.250429 6.800394 14.478965 13.625115 21.713583 20.442538 8.278212 7.801418 9.360729 19.344209 1.728378 27.624853a538.867092 538.867092 0 0 1-28.830218 29.021179c-8.315918 7.751549-19.205549 6.932972-27.223471-1.213878-7.176234-7.291784-14.291653-14.6456-21.369367-22.032256-1.074003-1.120222-1.82325-1.215095-3.28039-0.575315a1314.9586 1314.9586 0 0 1-27.782974 11.821325c-1.751488 0.722489-2.325586 1.57269-2.304909 3.471352 0.110684 9.939693-0.244478 19.891549 0.13501 29.819078 0.386787 10.156196-7.048522 17.643806-15.147936 20.202925-2.784136 0.879393-5.82248 1.280775-8.751357 1.316048-12.188652 0.141092-24.380952 0.149606-36.570821 0.029192-8.689325-0.086358-15.686762-3.602713-20.545924-10.991802-1.857307-2.823058-2.582228-5.945328-2.579795-9.281669 0.006082-10.376348-0.060816-20.753913 0.057166-31.127829 0.021894-1.942449-0.634914-2.745214-2.358426-3.433646-8.138336-3.249983-16.229237-6.62038-24.312839-10.004157-1.729594-0.729787-3.361883-1.682158-5.241084-2.633313l-0.003649 0.002432zM787.768422 702.954733c-0.074195-48.467558-39.487534-87.855354-87.959957-87.896709-48.607433-0.043787-88.170379 39.597002-88.060911 88.232411 0.109468 48.528373 39.695523 87.889411 88.288361 87.78724 48.39093-0.10217 87.805485-39.691874 87.73129-88.122942h0.001217z" p-id="3751" fill="#ffffff"></path></svg>