<?xml version="1.0" standalone="no"?><!DOCTYPE svg PUBLIC "-//W3C//DTD SVG 1.1//EN" "http://www.w3.org/Graphics/SVG/1.1/DTD/svg11.dtd"><svg class="icon" width="200px" height="200.00px" viewBox="0 0 1024 1024" version="1.1" xmlns="http://www.w3.org/2000/svg"><path fill="#333333" d="M886.513 639.068c23.925-48.717 37.155-103.5 38.113-156.984 3.18-184.35-124.826-345.063-304.149-386.386L547.891 465.09l338.622 173.977zM584.735 33.428a390.292 390.292 0 0 0-64.523-8.407c-55.331-2.452-109.337 7.977-160.537 29.645l154.01 348.298 71.05-369.536zM843.167 668.6L504.632 492.744 350.592 144.47c-133.289 56.725-220.175 185.62-222.72 331.254-3.584 208.333 161.034 385.546 370.176 394.967 146.094 6.646 281.318-72.182 345.119-202.092z" /></svg>