<?xml version="1.0" standalone="no"?><!DOCTYPE svg PUBLIC "-//W3C//DTD SVG 1.1//EN" "http://www.w3.org/Graphics/SVG/1.1/DTD/svg11.dtd"><svg t="1499916375439" class="icon" style="" viewBox="0 0 1024 1024" version="1.1" xmlns="http://www.w3.org/2000/svg" p-id="1045" xmlns:xlink="http://www.w3.org/1999/xlink" width="200" height="200"><defs><style type="text/css"></style></defs><path d="M512.584639 219.893708c40.41173 0.258019 73.19961-32.274913 73.199609-72.557634 0-40.025725-32.78788-72.559681-73.199609-72.559681-40.473163 0-73.196538 32.533956-73.196538 72.559681 0 40.089206 32.723375 72.557634 73.196538 72.557634z m73.330666 16.396499H439.129058c-55.266258 0-91.39098 48.28336-91.390981 94.203594v220.945238c0 42.847553 60.780905 42.847553 60.780905 0V347.144224h11.782872v555.564273c0 59.179548 82.417649 57.316077 84.337434 0V582.569248h15.696162V902.96754c3.391108 60.650871 84.340506 54.817796 84.340506-0.258019V347.144224h9.800631v204.234406c0 42.837314 62.696594 42.837314 62.696594 0V330.433391c0.126962-45.72979-36.116531-94.143184-91.257876-94.143184z" p-id="1046" fill="#4baae4"></path></svg>