<?xml version="1.0" standalone="no"?><!DOCTYPE svg PUBLIC "-//W3C//DTD SVG 1.1//EN" "http://www.w3.org/Graphics/SVG/1.1/DTD/svg11.dtd"><svg t="1500286859050" class="icon" style="" viewBox="0 0 1024 1024" version="1.1" xmlns="http://www.w3.org/2000/svg" p-id="1006" xmlns:xlink="http://www.w3.org/1999/xlink" width="200" height="200"><defs><style type="text/css"></style></defs><path d="M298.344 895.712c-17.81 0-28.704-7.371-34.702-13.552-13.649-14.060-14.086-33.548-14.032-37.309v-83.774h-43.441c-60.028 0-88.679-32.082-102.141-59.006-14.086-28.173-14.247-56.198-14.247-57.381v-370.179c0-1.184 0.159-29.211 14.247-57.381 13.46-26.922 42.111-59.006 102.141-59.006h605.774c60.028 0 88.679 32.082 102.141 59.006 14.086 28.173 14.247 56.198 14.247 57.381v370.179c0 1.184-0.159 29.199-14.247 57.381-13.46 26.922-42.097 59.006-102.141 59.006h-330.964l-137.457 113.274c-3.924 3.565-24.527 21.361-45.172 21.361zM280.455 845.698c0.025 1.052 0.292 6.531 2.78 11.373 1.996 3.858 5.346 7.794 15.11 7.794 6.983 0 19.606-8.899 24.581-13.487l0.813-0.705 146.169-120.43h342.046c35.529 0 59.711-13.342 73.943-40.782 11.067-21.348 11.573-43.813 11.585-44.761v-370.35c-0.053-2.326-0.785-23.743-11.585-44.586-14.233-27.44-38.415-40.782-73.943-40.782h-605.786c-35.529 0-59.723 13.342-73.956 40.782-7.163 13.98-11.451 30.466-11.67 47.93l0.085 367.020c0 0.226 0.318 23.011 11.585 44.761 14.233 27.44 38.415 40.782 73.956 40.782h42.046c10.828 0 19.114 3.339 24.634 9.937 4.854 5.786 5.959 12.289 6.624 16.174l0.053 0.332c0.066 0.386 0.119 0.746 0.199 1.105l0.053 0.253 0.666 2.181 0.015 85.462z" p-id="1007" fill="#8a8a8a"></path><path d="M478.833 600.541v-32.403h32.403v32.403h-32.403zM481.025 524.19c-0.051-2.027-0.081-4.413-0.081-6.807 0.001-13.331 2.011-25.689 5.973-35.851 2.887-7.623 7.635-15.417 14.126-23.239 4.881-5.825 13.9-14.553 26.801-25.938 13.767-12.144 22.544-21.708 26.829-29.211 4.403-7.714 6.65-16.241 6.65-25.355 0-16.281-6.4-30.725-19.008-42.95-12.569-12.182-28.16-18.354-46.33-18.354-17.571 0-32.495 5.628-44.347 16.707-10.814 10.109-18.235 25.407-22.119 45.543l-28.426-3.379c3.95-24.766 13.634-44.106 28.837-57.529 16.308-14.391 38.322-21.681 65.428-21.681 28.758 0 51.927 7.847 68.848 23.317 17.011 15.562 25.287 33.81 25.287 55.812 0 12.529-2.966 24.235-8.831 34.77-6.012 10.828-18.143 24.354-36.075 40.224-12.811 11.346-21.029 19.593-25.111 25.191-5.884 8.086-9.827 17.942-10.957 28.637-0.11-2.445-1.173 7.066-1.599 20.086h-25.898z" p-id="1008" fill="#8a8a8a"></path></svg>