<?xml version="1.0" standalone="no"?><!DOCTYPE svg PUBLIC "-//W3C//DTD SVG 1.1//EN" "http://www.w3.org/Graphics/SVG/1.1/DTD/svg11.dtd"><svg t="1498553792506" class="icon" style="" viewBox="0 0 1024 1024" version="1.1" xmlns="http://www.w3.org/2000/svg" p-id="2986" xmlns:xlink="http://www.w3.org/1999/xlink" width="200" height="200"><defs><style type="text/css"></style></defs><path d="M621.056 406.528c83.328 83.392 83.328 219.904 0 303.36l-193.28 193.344c-83.456 83.392-219.904 83.392-303.36 0l-3.584-3.584c-83.456-83.392-83.456-219.904 0-303.36l135.296-135.104C255.424 500.864 262.656 540.928 277.824 578.368l-87.424 87.424c-45.312 45.184-45.312 118.912 0 164.224l3.648 3.584c45.312 45.248 118.976 45.248 164.288 0l193.344-193.28c45.312-45.312 45.312-119.04 0-164.288L547.968 472.512c-7.04-7.04-14.848-12.928-23.168-17.792L595.52 384C603.136 389.76 610.56 396.032 617.472 403.008L621.056 406.528zM903.168 124.48l-3.648-3.584c-83.392-83.456-219.904-83.456-303.36 0l-193.28 193.344c-83.456 83.392-83.456 219.904 0 303.36l3.584 3.52C413.44 627.968 420.864 634.24 428.416 640.128l70.72-70.784C490.88 564.48 483.072 558.592 476.032 551.552L472.448 548.032c-45.312-45.312-45.312-119.04 0-164.352l193.344-193.28c45.184-45.312 118.848-45.312 164.16 0l3.584 3.584c45.312 45.312 45.312 119.04 0 164.288L746.24 445.696c15.168 37.504 22.336 77.44 21.632 117.248l135.232-135.168C986.56 344.384 986.56 207.872 903.168 124.48z" p-id="2987" fill="#8a8a8a"></path></svg>