<?xml version="1.0" standalone="no"?><!DOCTYPE svg PUBLIC "-//W3C//DTD SVG 1.1//EN" "http://www.w3.org/Graphics/SVG/1.1/DTD/svg11.dtd"><svg t="1501490382205" class="icon" style="" viewBox="0 0 1024 1024" version="1.1" xmlns="http://www.w3.org/2000/svg" p-id="14972" xmlns:xlink="http://www.w3.org/1999/xlink" width="200" height="200"><defs><style type="text/css"></style></defs><path d="M352.755648 279.583626l318.507124 0c11.207249 0 21.36561-4.726651 27.891234-12.957103 6.476505-8.29492 8.625448-19.266809 5.909593-30.16502l-11.736299-46.676066c-4.903683-19.566638-24.603351-34.889625-44.832068-34.889625l-45.486984 0c-4.687766 0-10.553357-4.619204-11.692297-9.127891l-11.735275-46.670949c-4.903683-19.571754-24.604374-34.895765-44.832068-34.895765l-45.533033 0c-20.22667 0-39.883359 15.32401-44.788066 34.895765l-11.735275 46.670949c-1.093914 4.508687-7.046486 9.127891-11.69025 9.127891l-45.526893 0c-20.227694 0-39.933501 15.322987-44.793182 34.889625l-11.730159 46.676066c-2.76088 10.897188-0.571005 21.869077 5.910617 30.16502C331.343989 274.856975 341.503373 279.583626 352.755648 279.583626L352.755648 279.583626zM807.775912 200.231347 762.243903 200.231347c-9.414417 0-17.074887 7.619538-17.074887 17.008372l7.300266 35.072797c3.381004 13.579273 0.704035 27.241434-7.363711 37.57171-8.126075 10.252505-20.780279 16.140609-34.737152 16.140609L313.656141 306.024835c-14.018272 0-26.665313-5.889127-34.739199-16.140609-8.067746-10.330276-10.797927-23.992437-7.362688-37.57171l7.250124-35.072797c0-9.388834-7.615445-17.008372-17.073864-17.008372l-45.485961 0c-21.959128 0-39.820937 17.797341-39.820937 39.690978l0 680.21005c0 21.868053 17.86181 39.666418 39.820937 39.666418l591.531358 0c21.937638 0 39.799448-17.798365 39.799448-39.666418L847.57536 239.922325C847.574337 218.028689 829.712527 200.231347 807.775912 200.231347L807.775912 200.231347zM671.263795 778.409582 352.755648 778.409582c-9.414417 0-17.073864-7.619538-17.073864-16.989953 0-9.388834 7.659447-17.003256 17.073864-17.003256l318.507124 0c9.413394 0 17.076934 7.614421 17.076934 17.003256C688.340729 770.790044 680.677189 778.409582 671.263795 778.409582L671.263795 778.409582zM671.263795 687.716001 352.755648 687.716001c-9.414417 0-17.073864-7.615445-17.073864-17.009396 0-9.369392 7.659447-16.984836 17.073864-16.984836l318.507124 0c9.413394 0 17.076934 7.619538 17.076934 16.984836C688.340729 680.100556 680.677189 687.716001 671.263795 687.716001L671.263795 687.716001zM671.263795 597.021395 352.755648 597.021395c-9.414417 0-17.073864-7.614421-17.073864-17.003256 0-9.394974 7.659447-16.990976 17.073864-16.990976l318.507124 0c9.413394 0 17.076934 7.596002 17.076934 16.990976C688.340729 589.406974 680.677189 597.021395 671.263795 597.021395L671.263795 597.021395zM671.263795 506.331907 352.755648 506.331907c-9.414417 0-17.073864-7.619538-17.073864-17.009396 0-9.394974 7.659447-16.989953 17.073864-16.989953l318.507124 0c9.413394 0 17.076934 7.594979 17.076934 16.989953C688.340729 498.712369 680.677189 506.331907 671.263795 506.331907L671.263795 506.331907zM671.263795 415.637302 352.755648 415.637302c-9.414417 0-17.073864-7.619538-17.073864-17.008372 0-9.393951 7.659447-17.010419 17.073864-17.010419l318.507124 0c9.413394 0 17.076934 7.619538 17.076934 17.010419C688.340729 408.017764 680.677189 415.637302 671.263795 415.637302L671.263795 415.637302zM671.263795 415.637302" fill="#ffffff" p-id="14973"></path></svg>