<?xml version="1.0" standalone="no"?><!DOCTYPE svg PUBLIC "-//W3C//DTD SVG 1.1//EN" "http://www.w3.org/Graphics/SVG/1.1/DTD/svg11.dtd"><svg t="1497606277515" class="icon" style="" viewBox="0 0 1024 1024" version="1.1" xmlns="http://www.w3.org/2000/svg" p-id="10208" xmlns:xlink="http://www.w3.org/1999/xlink" width="32" height="32"><defs><style type="text/css"></style></defs><path d="M282.762315 817.193594h451.66039V551.973507c0-124.206505-101.62369-225.830195-225.830195-225.830195-124.206505 0-225.830195 101.62369-225.830195 225.830195v265.220087zM512.268258 249.048843c20.58931 0 37.436319-16.845985 37.436319-37.43632V108.376214c0-20.58931-16.845985-37.436319-37.436319-37.436319-20.58931 0-37.436319 16.845985-37.436319 37.436319v103.236309c0 20.590334 16.845985 37.436319 37.436319 37.43632zM920.563009 427.087142H817.326699c-20.675316 0-37.436319 16.761003-37.436319 37.436319s16.761003 37.436319 37.436319 37.43632h103.23631c20.675316 0 37.436319-16.761003 37.436319-37.43632 0-20.67634-16.761003-37.436319-37.436319-37.436319zM247.575472 464.522437c0-20.675316-16.761003-37.436319-37.43632-37.436319H106.902843c-20.675316 0-37.436319 16.761003-37.436319 37.436319s16.761003 37.436319 37.436319 37.43632h103.236309c20.675316 0 37.436319-16.761003 37.43632-37.43632zM698.00208 321.489753c14.620059 14.620059 38.323004 14.620059 52.942038 0l72.998928-72.998928c14.620059-14.620059 14.620059-38.323004 0-52.942038-14.620059-14.620059-38.323004-14.620059-52.942038 0l-72.998928 72.998928c-14.619035 14.619035-14.619035 38.323004 0 52.942038zM267.549426 321.489753c14.620059 14.620059 38.323004 14.620059 52.942039 0 14.620059-14.620059 14.620059-38.323004 0-52.942038l-72.998928-72.998928c-14.620059-14.620059-38.323004-14.620059-52.942039 0-14.620059 14.620059-14.620059 38.323004 0 52.942038l72.998928 72.998928zM780.419729 854.817284H244.116787c-24.414546 0-44.207273 19.792727-44.207273 44.207273 0 24.415569 19.792727 44.207273 44.207273 44.207273h536.303966c24.415569 0 44.207273-19.792727 44.207273-44.207273-0.001024-24.415569-19.792727-44.207273-44.208297-44.207273z" fill="#ffffff" p-id="10209"></path></svg>